<svg class="icon" width="47" height="45" viewBox="0 0 47 45" fill="none" xmlns="http://www.w3.org/2000/svg">
    <path d="M19.8684 29.25C20.8611 29.25 21.8295 29.1825 22.7979 29.115C23.2579 27.405 24.0326 25.785 25.0979 24.3675C23.4274 24.615 21.66 24.75 19.8684 24.75C14.0095 24.75 8.48947 23.4 5.34211 21.2625V14.94C8.90105 16.8075 14.0821 18 19.8684 18C25.6547 18 30.8358 16.8075 34.3947 14.94V18.4275C35.6053 18.1575 36.8158 18 38.1474 18C38.5105 18 38.8737 18 39.2368 18.0675V9C39.2368 4.0275 30.5695 0 19.8684 0C9.16737 0 0.5 4.0275 0.5 9V31.5C0.5 36.4725 9.19158 40.5 19.8684 40.5C21.4663 40.5 23.04 40.41 24.5168 40.23C23.6695 38.9025 23.04 37.44 22.6768 35.865C21.7811 36 20.8611 36 19.8684 36C10.4989 36 5.34211 32.625 5.34211 31.5V26.4825C9.24 28.2375 14.3484 29.25 19.8684 29.25ZM19.8684 4.5C29.2379 4.5 34.3947 7.875 34.3947 9C34.3947 10.125 29.2379 13.5 19.8684 13.5C10.4989 13.5 5.34211 10.125 5.34211 9C5.34211 7.875 10.4989 4.5 19.8684 4.5ZM46.5 32.625C46.5 34.47 45.8947 36.18 44.8779 37.5975L42.2389 35.145C42.6505 34.38 42.8684 33.525 42.8684 32.625C42.8684 29.52 40.1568 27 36.8158 27V30.375L31.3684 25.3125L36.8158 20.25V23.625C42.1663 23.625 46.5 27.6525 46.5 32.625ZM36.8158 34.875L42.2632 39.9375L36.8158 45V41.625C31.4653 41.625 27.1316 37.5975 27.1316 32.625C27.1316 30.78 27.7368 29.07 28.7537 27.6525L31.3926 30.105C30.9811 30.87 30.7632 31.725 30.7632 32.625C30.7632 35.73 33.4747 38.25 36.8158 38.25V34.875Z"  />
</svg>
