<svg width="35" height="54" viewBox="0 0 35 54" fill="none" xmlns="http://www.w3.org/2000/svg">
<path d="M17.5 0C19.6421 0 21.6965 0.853391 23.2112 2.37244C24.726 3.89148 25.5769 5.95175 25.5769 8.1C25.5769 10.2483 24.726 12.3085 23.2112 13.8276C21.6965 15.3466 19.6421 16.2 17.5 16.2C15.3579 16.2 13.3035 15.3466 11.7888 13.8276C10.274 12.3085 9.42308 10.2483 9.42308 8.1C9.42308 5.95175 10.274 3.89148 11.7888 2.37244C13.3035 0.853391 15.3579 0 17.5 0ZM17.5 18.9C21.8885 18.9 25.9 19.845 29.6154 21.735C33.2231 23.652 35 25.947 35 28.647V44.226C35 47.25 32.6846 49.788 27.9731 51.813V45.9C27.9731 43.335 25.6577 41.526 21.0269 40.419C19.5192 40.068 18.3346 39.906 17.5 39.906C15.1577 39.906 12.9231 40.365 10.8769 41.31C8.80385 42.228 7.56538 43.416 7.16154 44.847C10.7692 46.278 14.2154 47.007 17.5 47.007L20.1923 46.737V53.838L17.5 54C13.8115 54 10.3115 53.244 7.02692 51.813C2.31538 49.788 0 47.25 0 44.226V28.647C0 25.947 1.77692 23.652 5.38462 21.735C9.1 19.845 13.1385 18.9 17.5 18.9ZM17.5 24.3C16.0719 24.3 14.7023 24.8689 13.6925 25.8816C12.6827 26.8943 12.1154 28.2678 12.1154 29.7C12.1154 31.1322 12.6827 32.5057 13.6925 33.5184C14.7023 34.5311 16.0719 35.1 17.5 35.1C18.9281 35.1 20.2977 34.5311 21.3075 33.5184C22.3173 32.5057 22.8846 31.1322 22.8846 29.7C22.8846 28.2678 22.3173 26.8943 21.3075 25.8816C20.2977 24.8689 18.9281 24.3 17.5 24.3Z" fill="white"/>
</svg>
