<svg width="41" height="40" viewBox="0 0 41 40" fill="none" xmlns="http://www.w3.org/2000/svg">
<path d="M20.5 0C23.1522 0 25.6957 1.05357 27.5711 2.92893C29.4464 4.8043 30.5 7.34784 30.5 10C30.5 12.6522 29.4464 15.1957 27.5711 17.0711C25.6957 18.9464 23.1522 20 20.5 20C17.8478 20 15.3043 18.9464 13.4289 17.0711C11.5536 15.1957 10.5 12.6522 10.5 10C10.5 7.34784 11.5536 4.8043 13.4289 2.92893C15.3043 1.05357 17.8478 0 20.5 0ZM20.5 25C31.55 25 40.5 29.475 40.5 35V40H0.5V35C0.5 29.475 9.45 25 20.5 25Z" fill="white"/>
</svg>
